<svg width="24" height="24" viewBox="0 0 24 24" fill="none" xmlns="http://www.w3.org/2000/svg">
<path d="M23.933 7.054C23.8754 5.77617 23.669 4.90187 23.3761 4.13806C23.0689 3.35023 22.6608 2.67769 21.9934 2.01476C21.3261 1.35183 20.6588 0.933899 19.8714 0.631257C19.1081 0.333418 18.2343 0.131657 16.9572 0.0740108C15.6754 0.0163647 15.2673 0.00195312 12.0122 0.00195312C8.7524 0.00195312 8.34431 0.0163647 7.06726 0.0740108C5.7902 0.131657 4.91643 0.338222 4.15308 0.631257C3.36092 0.938703 2.68878 1.34703 2.02625 2.01476C1.36372 2.6825 0.946035 3.35023 0.643574 4.13806C0.350716 4.90187 0.144274 5.77617 0.0866628 7.054C0.0290513 8.33662 0.0146484 8.74495 0.0146484 12.002C0.0146484 15.2638 0.0290513 15.6721 0.0866628 16.9499C0.144274 18.2277 0.350716 19.102 0.643574 19.8658C0.950836 20.6537 1.35892 21.3262 2.02625 21.9891C2.68878 22.6569 3.36092 23.07 4.14827 23.3727C4.91163 23.6705 5.7854 23.8722 7.06246 23.9299C8.34431 23.9875 8.7524 24.002 12.0074 24.002C15.2673 24.002 15.6754 23.9875 16.9524 23.9299C18.2295 23.8722 19.1033 23.6657 19.8666 23.3727C20.654 23.0652 21.3261 22.6569 21.9886 21.9891C22.6512 21.3214 23.0689 20.6537 23.3713 19.8658C23.669 19.102 23.8706 18.2277 23.9282 16.9499C23.9858 15.6673 24.0002 15.259 24.0002 12.002C24.0002 8.74495 23.9906 8.33182 23.933 7.054ZM21.7774 16.8538C21.7246 18.026 21.5278 18.6649 21.3645 19.0828C21.1485 19.6401 20.8844 20.0436 20.4619 20.4663C20.0395 20.8891 19.641 21.1437 19.0793 21.3694C18.6568 21.5328 18.0182 21.7297 16.8516 21.7826C15.589 21.8402 15.2097 21.8546 12.0026 21.8546C8.7956 21.8546 8.41633 21.8402 7.15368 21.7826C5.98224 21.7297 5.34371 21.5328 4.92603 21.3694C4.36912 21.1533 3.96584 20.8891 3.54335 20.4663C3.12087 20.0436 2.86642 19.6449 2.64077 19.0828C2.47754 18.6601 2.2807 18.0212 2.22789 16.8538C2.17028 15.5904 2.15588 15.2109 2.15588 12.002C2.15588 8.79299 2.17028 8.41348 2.22789 7.15007C2.2807 5.97793 2.47754 5.33902 2.64077 4.92109C2.85682 4.36384 3.12087 3.96032 3.54335 3.53758C3.96584 3.11484 4.36432 2.86024 4.92603 2.63446C5.34852 2.47113 5.98704 2.27417 7.15368 2.22133C8.41633 2.16368 8.7956 2.14927 12.0026 2.14927C15.2097 2.14927 15.589 2.16368 16.8516 2.22133C18.0231 2.27417 18.6616 2.47113 19.0793 2.63446C19.6362 2.85063 20.0395 3.11484 20.4619 3.53758C20.8844 3.96032 21.1389 4.35904 21.3645 4.92109C21.5278 5.34383 21.7246 5.98274 21.7774 7.15007C21.835 8.41348 21.8494 8.79299 21.8494 12.002C21.8494 15.2109 21.8302 15.5904 21.7774 16.8538Z" fill="#705A66"/>
<path d="M12.0023 5.83398C8.59364 5.83398 5.83789 8.59619 5.83789 12.0021C5.83789 15.4128 8.59844 18.1703 12.0023 18.1703C15.4062 18.1703 18.1668 15.4032 18.1668 12.0021C18.1668 8.59139 15.411 5.83398 12.0023 5.83398ZM12.0023 16.0037C9.79388 16.0037 8.00312 14.2119 8.00312 12.0021C8.00312 9.79235 9.79388 8.00052 12.0023 8.00052C14.2108 8.00052 16.0015 9.79235 16.0015 12.0021C16.0015 14.2119 14.2108 16.0037 12.0023 16.0037Z" fill="#705A66"/>
<path d="M18.4071 7.03489C19.2025 7.03489 19.8474 6.38967 19.8474 5.59374C19.8474 4.79781 19.2025 4.15259 18.4071 4.15259C17.6116 4.15259 16.9668 4.79781 16.9668 5.59374C16.9668 6.38967 17.6116 7.03489 18.4071 7.03489Z" fill="#705A66"/>
<path d="M0 12.002C0 15.2638 0.0144029 15.6721 0.0720144 16.9499C0.129626 18.2277 0.336067 19.102 0.628926 19.8658C0.936187 20.6537 1.34427 21.3262 2.0116 21.9891C2.67413 22.6521 3.34627 23.07 4.13363 23.3727C4.89698 23.6705 5.77075 23.8722 7.04781 23.9299C8.32967 23.9875 8.73775 24.002 11.9928 24.002C15.2527 24.002 15.6607 23.9875 16.9378 23.9299C18.2148 23.8722 19.0886 23.6657 19.852 23.3727C20.6393 23.0652 21.3115 22.6569 21.974 21.9891C22.6365 21.3262 23.0542 20.6537 23.3567 19.8658C23.6543 19.102 23.856 18.2277 23.9136 16.9499C23.9712 15.6673 23.9856 15.259 23.9856 12.002C23.9856 8.74014 23.9712 8.33182 23.9136 7.054C23.856 5.77617 23.6495 4.90187 23.3567 4.13806C23.0494 3.35023 22.6413 2.67769 21.974 2.01476C21.3163 1.34703 20.6441 0.933899 19.8568 0.631257C19.0934 0.333418 18.2196 0.131657 16.9426 0.0740108C15.6607 0.0163647 15.2527 0.00195312 11.9976 0.00195312C8.73775 0.00195312 8.32967 0.0163647 7.05261 0.0740108C5.77555 0.131657 4.90178 0.338222 4.13843 0.631257C3.35107 0.938703 2.67894 1.34703 2.0164 2.01476C1.35387 2.6825 0.936187 3.35023 0.633727 4.13806C0.336067 4.90187 0.129626 5.77617 0.0720144 7.054C0.0144029 8.33182 0 8.74014 0 12.002ZM2.16523 12.002C2.16523 8.79779 2.17964 8.41348 2.23725 7.15007C2.29006 5.97793 2.4869 5.33902 2.65013 4.92109C2.86617 4.36384 3.13023 3.96032 3.55271 3.53758C3.97519 3.11484 4.37367 2.86024 4.93539 2.63446C5.35787 2.47113 5.9964 2.27417 7.16303 2.22133C8.42568 2.16368 8.80496 2.14927 12.012 2.14927C15.219 2.14927 15.5983 2.16368 16.861 2.22133C18.0324 2.27417 18.6709 2.47113 19.0886 2.63446C19.6455 2.85063 20.0488 3.11484 20.4713 3.53758C20.8938 3.96032 21.1482 4.35904 21.3739 4.92109C21.5371 5.34383 21.7339 5.98274 21.7868 7.15007C21.8444 8.41348 21.8588 8.79299 21.8588 12.002C21.8588 15.2109 21.8444 15.5904 21.7868 16.8538C21.7339 18.026 21.5371 18.6649 21.3739 19.0828C21.1578 19.6401 20.8938 20.0436 20.4713 20.4663C20.0488 20.8891 19.6503 21.1437 19.0886 21.3694C18.6661 21.5328 18.0276 21.7297 16.861 21.7826C15.5983 21.8402 15.219 21.8546 12.012 21.8546C8.80496 21.8546 8.42568 21.8402 7.16303 21.7826C5.9916 21.7297 5.35307 21.5328 4.93539 21.3694C4.37848 21.1533 3.97519 20.8891 3.55271 20.4663C3.13023 20.0436 2.87578 19.6449 2.65013 19.0828C2.4869 18.6601 2.29006 18.0212 2.23725 16.8538C2.17483 15.5904 2.16523 15.2061 2.16523 12.002Z" fill="#705A66"/>
</svg>
