<svg width="36" height="36" viewBox="0 0 36 36" fill="none" xmlns="http://www.w3.org/2000/svg">
<path d="M18 1C9.17619 1 1 2.41998 1 15.5226C1 23.9134 4.36762 27.5118 9.09524 29.0124V33.224C9.05928 33.5783 9.14192 33.9345 9.33029 34.2371C9.51866 34.5397 9.80218 34.7717 10.1367 34.8969C10.4711 35.0222 10.8378 35.0336 11.1795 34.9295C11.5212 34.8253 11.8187 34.6115 12.0257 34.3212L15.8143 30.0129H18C26.8238 30.0129 35 28.609 35 15.4903C35 2.37158 26.8238 1 18 1Z" stroke="#F5F7F8" stroke-width="1.42143" stroke-linecap="round" stroke-linejoin="round"/>
<path d="M18.0006 12.2953C18.6447 12.2953 19.2624 12.5503 19.7179 13.0042C20.1733 13.4581 20.4292 14.0738 20.4292 14.7157M18.0006 5.84082C20.3623 5.84082 22.6272 6.77585 24.2972 8.44022C25.9672 10.1046 26.9054 12.362 26.9054 14.7157M18.0006 9.06806C19.5035 9.06806 20.9448 9.66308 22.0075 10.7222C23.0702 11.7814 23.6673 13.2179 23.6673 14.7157M12.3339 20.3634C14.4387 22.4611 19.0854 25.2042 21.2387 25.2042C22.1833 25.214 23.1022 24.898 23.8398 24.3099C24.5775 23.7217 25.0885 22.8976 25.2863 21.977V20.3634C25.2863 20.3634 23.2949 19.3952 22.0482 18.7498C20.8015 18.1043 18.8101 20.3634 18.8101 20.3634C17.2949 19.8714 15.9111 19.0439 14.7625 17.943C13.6578 16.7982 12.8275 15.4191 12.3339 13.9089C12.3339 13.9089 14.6006 11.9242 13.953 10.6817C13.3054 9.43919 12.3339 7.45444 12.3339 7.45444H10.7149C9.79119 7.65161 8.96427 8.16091 8.37417 8.89607C7.78406 9.63123 7.46703 10.5471 7.47678 11.4885C7.47678 13.6346 10.2292 18.2657 12.3339 20.3634Z" stroke="#F5F7F8" stroke-width="1.42143" stroke-linecap="round" stroke-linejoin="round"/>
</svg>
