<svg width="102" height="71" viewBox="0 0 102 71" fill="none" xmlns="http://www.w3.org/2000/svg">
<g clip-path="url(#clip0_1_1741)">
<path fill-rule="evenodd" clip-rule="evenodd" d="M23.9395 11.1207L27.8823 11.1947L19.1582 39.6563C20.3618 39.952 21.499 40.3052 22.5698 40.7077C21.5156 40.3134 20.4033 39.9684 19.2246 39.6727C11.5713 37.9724 5.24609 40.4531 0 46.3507L6.53271 49.3981L34.2822 62.3517C34.498 60.6678 34.5977 59.0907 34.5645 57.604C34.5728 57.8175 34.5894 58.0393 34.5894 58.2611H66.4395C66.4478 65.0212 71.9927 70.4918 78.8242 70.4918C85.6558 70.4918 91.2007 65.013 91.209 58.2611H101.635C102.357 44.2397 95.6665 33.4547 83.9458 32.4197H99.7173C100.971 32.4197 101.992 31.4012 101.992 30.1691V27.6967C101.992 26.4728 100.979 25.4789 99.7505 25.4789H99.5513V8.54153C99.5513 7.43264 98.6299 6.52088 97.5093 6.52088H68.1245C67.0039 6.52088 66.0825 7.43264 66.0825 8.54153V25.4707H51.5562C50.0205 25.4214 49.207 26.1114 49.1987 27.6309V32.4279V35.5657C55.7397 40.6584 56.7358 48.6178 50.7676 53.1027H41.0889C40.8398 45.4718 36.4321 40.8227 29.1108 35.6807L33.4771 22.3658C35.2783 18.2259 34.0913 15.0881 31.46 12.895C32.2817 10.2829 32.8711 8.04869 32.6885 6.22517L37.2622 7.16157C38.748 7.46549 39.1299 7.99119 39.6113 6.57016C39.6943 6.32374 39.7607 6.08554 39.8022 5.83912C40.1758 3.89239 39.9434 4.02381 38.3496 3.71989L33.4688 2.78349H32.0161L30.2231 1.7896C29.1523 1.18176 28.04 0.82034 26.9028 0.672488L25.334 0.573919C23.7236 0.573919 21.9141 0.130361 20.9844 1.60067C20.9678 1.62532 20.9595 1.71567 20.9512 1.84709C20.2954 2.06887 19.731 2.5535 19.3076 3.21884C18.7847 4.02381 18.4692 5.12449 18.4692 6.32374C18.4692 7.52299 18.793 8.62367 19.3076 9.42865C19.8887 10.3322 20.7271 10.9072 21.6899 10.9318C22.2461 11.3261 23.126 11.1043 23.9395 11.1207ZM85.606 20.5176H95.9487V22.3165H85.606V20.5176ZM77.7451 8.2869H85.2158V16.3202L81.2979 13.3139L77.7451 16.3202V8.2869ZM85.606 25.1996H95.9487V26.9985H85.606V25.1996ZM6.56592 49.4228L17.606 54.5976L14.02 52.9712C11.5547 53.4887 9.71191 55.6572 9.71191 58.2447C9.71191 61.2263 12.1523 63.6413 15.1655 63.6413C18.1787 63.6413 20.6191 61.2263 20.6191 58.2447C20.6191 57.3247 20.3867 56.4622 19.98 55.6983L27.5171 59.2303C27.0107 65.5387 21.6733 70.5 15.1738 70.5C8.33399 70.5 2.78906 65.013 2.78906 58.2447C2.77246 54.7783 4.2251 51.6488 6.56592 49.4228ZM20.9761 3.94989C21.0259 5.52698 21.1338 7.55585 21.2085 8.91938C21.0757 8.80438 20.9429 8.65653 20.8267 8.46761C20.478 7.93369 20.2705 7.16979 20.2705 6.31553C20.2705 5.46127 20.4863 4.69736 20.8267 4.16345C20.8765 4.08953 20.9263 4.0156 20.9761 3.94989ZM73.3789 58.2611H84.2861C84.2778 61.2346 81.8374 63.6331 78.8325 63.6331C75.8276 63.6331 73.3872 61.2346 73.3789 58.2611Z" fill="#DDD5C6"/>
</g>
<defs>
<clipPath id="clip0_1_1741">
<rect width="102" height="70" fill="white" transform="translate(0 0.5)"/>
</clipPath>
</defs>
</svg>
