<svg width="80" height="78" viewBox="0 0 80 78" fill="none" xmlns="http://www.w3.org/2000/svg">
<g clip-path="url(#clip0_1_1749)">
<path d="M19.4141 5.33463C19.1947 5.33118 18.9769 5.3714 18.7732 5.45295C18.5696 5.53451 18.3842 5.65577 18.2279 5.80967C18.0716 5.96357 17.9474 6.14703 17.8627 6.34938C17.778 6.55173 17.7343 6.76891 17.7344 6.98828V10.7383L12.8841 15.5885V4.95703C12.8828 3.76657 13.3533 2.62411 14.1927 1.77994C15.0399 0.949879 16.1773 0.48278 17.3633 0.477859L75.5208 0.477859C76.7069 0.48278 77.8443 0.949879 78.6914 1.77994C79.5136 2.62963 79.9795 3.76173 79.9935 4.94401V52.7174C79.9935 53.9088 79.7005 55.2826 78.6914 55.888C77.849 56.7212 76.7122 57.189 75.5273 57.1901H40.1562C39.9416 56.0423 39.5874 54.9251 39.1016 53.8633L40.6641 52.3073H73.5091C73.9443 52.3039 74.3606 52.129 74.6677 51.8207C74.9748 51.5123 75.148 51.0954 75.1497 50.6602V6.98828C75.1497 6.5497 74.9755 6.12909 74.6654 5.81897C74.3553 5.50885 73.9347 5.33463 73.4961 5.33463H64.5117V22.5417L55.0195 17.7956L45.5729 22.5417V5.33463H19.4141ZM6.08073 51.0638L4.01042 62.7825C3.98175 62.9358 3.91453 63.0792 3.8151 63.1992C3.28282 63.8057 2.92111 64.5426 2.76693 65.3346C2.70768 65.543 2.70669 65.7637 2.76409 65.9726C2.82148 66.1815 2.93505 66.3707 3.09245 66.5195L10.599 74.0456C11.0977 74.5341 11.7337 74.8589 12.4219 74.9766C13.2144 75.2199 14.0579 75.2446 14.8633 75.0482H14.9219L16.3346 74.6966C18.5026 74.1693 20.3906 73.7005 22.1484 72.0924L24.401 69.7422C24.4278 69.7025 24.4583 69.6654 24.4922 69.6315C24.5247 69.6315 24.7461 69.3776 25.0456 69.0977C26.582 67.5872 28.4961 65.7253 27.3307 64.0977L26.4258 63.1927C25.9896 63.6159 25.5273 64.026 25.0846 64.4297C24.6419 64.8333 24.2969 65.1198 23.9453 65.4714C23.7666 65.6501 23.5242 65.7505 23.2715 65.7505C23.0187 65.7505 22.7764 65.6501 22.5977 65.4714C22.4189 65.2926 22.3185 65.0503 22.3185 64.7975C22.3185 64.5448 22.4189 64.3024 22.5977 64.1237C22.9427 63.7721 23.3789 63.388 23.8216 62.9909C25.3516 61.6497 27.0768 60.1068 26.1589 58.7591L25.2669 57.8672L25.1367 57.7044C24.6224 58.2318 24.056 58.7331 23.5026 59.2214C23.099 59.5794 22.7214 59.9115 22.3698 60.263C22.1906 60.4407 21.9484 60.5404 21.696 60.5404C21.4436 60.5404 21.2014 60.4407 21.0221 60.263C20.9326 60.1751 20.8614 60.0703 20.8129 59.9546C20.7643 59.8389 20.7393 59.7147 20.7393 59.5892C20.7393 59.4637 20.7643 59.3395 20.8129 59.2238C20.8614 59.1081 20.9326 59.0032 21.0221 58.9154C21.3672 58.5638 21.8034 58.1797 22.2461 57.7891C23.776 56.4414 25.5013 54.8984 24.5833 53.5508L23.6914 52.6589C23.6317 52.5955 23.5792 52.5256 23.5352 52.4505L20.931 55.0547C20.7523 55.2334 20.5099 55.3338 20.2572 55.3338C20.0044 55.3338 19.762 55.2334 19.5833 55.0547C19.4046 54.876 19.3042 54.6336 19.3042 54.3809C19.3042 54.1281 19.4046 53.8857 19.5833 53.707L24.4987 48.7917C25.6771 47.6133 25.944 46.3893 25.638 45.4583C25.5273 45.1198 25.638 45.1133 25.3906 44.8724C25.2672 44.75 25.1295 44.6429 24.9805 44.5534C24.9089 44.5534 24.8568 44.5143 24.7852 44.4427C24.7012 44.4013 24.6141 44.3665 24.5247 44.3385C23.7109 44.0651 22.9362 44.5469 21.8685 45.4518L21.8229 45.4909C21.7057 45.5885 21.5885 45.6927 21.4714 45.8099L11.2435 56.0378C11.0643 56.2155 10.8221 56.3152 10.5697 56.3152C10.3173 56.3152 10.0751 56.2155 9.89583 56.0378C9.7321 55.877 9.63254 55.6621 9.61576 55.4332C9.59899 55.2043 9.66615 54.9772 9.80469 54.7943L6.08073 51.0638ZM12.2396 51.7669L12.5716 51.4414L19.2969 44.7096C18.0213 44.1356 16.9625 43.1689 16.275 41.9508C15.5875 40.7326 15.3072 39.3266 15.475 37.9379C15.6428 36.5492 16.25 35.2504 17.2079 34.2311C18.1659 33.2118 19.4244 32.5252 20.8001 32.2715C22.1757 32.0179 23.5963 32.2104 24.8548 32.821C26.1133 33.4317 27.1438 34.4284 27.7959 35.6659C28.448 36.9034 28.6876 38.3169 28.4798 39.7002C28.2719 41.0835 27.6276 42.3642 26.6406 43.3555L26.5755 43.4206C26.6286 43.4649 26.6786 43.5128 26.7253 43.5638C26.9326 43.7603 27.1181 43.9786 27.2786 44.2148L35.625 35.901C35.0115 35.2817 34.6674 34.4453 34.6674 33.5736C34.6674 32.7019 35.0115 31.8654 35.625 31.2461L29.4076 25.0286C28.791 25.6449 27.955 25.991 27.0833 25.991C26.2116 25.991 25.3756 25.6449 24.7591 25.0286L7.46094 42.3268C8.07439 42.9461 8.41854 43.7826 8.41854 44.6543C8.41854 45.526 8.07439 46.3625 7.46094 46.9818L12.2396 51.7669ZM26.9141 49.5534C26.6774 49.8846 26.4116 50.194 26.1198 50.4779L25.1497 51.4544C25.2252 51.498 25.2951 51.5504 25.3581 51.6107L26.2891 52.5482C26.3397 52.6003 26.3855 52.657 26.4258 52.7174C26.8803 53.259 27.1433 53.9355 27.1739 54.6418C27.2045 55.3482 27.001 56.0448 26.5951 56.6237C26.7248 56.6715 26.8426 56.747 26.9401 56.8451L27.8711 57.776C27.9222 57.8301 27.968 57.889 28.0078 57.9518C28.4866 58.5343 28.7483 59.2649 28.7483 60.0189C28.7483 60.7729 28.4866 61.5035 28.0078 62.0859C28.05 62.1146 28.0892 62.1473 28.125 62.1836L29.056 63.1146C29.1051 63.1703 29.1508 63.229 29.1927 63.2904C31.3607 66.2526 28.776 68.7656 26.6992 70.7969L26.1654 71.3307L23.8542 73.7591L23.776 73.8307C21.6602 75.7839 19.5573 76.2656 17.1289 76.8581L15.7422 77.2031H15.7031C14.5446 77.548 13.3245 77.6347 12.1289 77.457C11.0571 77.2745 10.068 76.7651 9.29688 75.9987L1.23047 67.8932C0.83872 67.53 0.551245 67.0687 0.397849 66.557C0.244453 66.0453 0.23072 65.5019 0.358073 64.9831C0.652184 63.8578 1.19753 62.8139 1.95312 61.9297L4.07552 49.7096V49.6576C4.07552 49.5078 4.1276 49.3385 4.16016 49.1497L0 44.9961L27.4479 17.5482L43.1836 33.2838L26.9076 49.5599L26.9141 49.5534Z" fill="#DDD5C6"/>
</g>
<defs>
<clipPath id="clip0_1_1749">
<rect width="80" height="77.0443" fill="white" transform="translate(0 0.477859)"/>
</clipPath>
</defs>
</svg>
