<svg width="76" height="77" viewBox="0 0 76 77" fill="none" xmlns="http://www.w3.org/2000/svg">
<path fill-rule="evenodd" clip-rule="evenodd" d="M13.8125 60.0367C13.0997 60.0367 12.4162 60.3198 11.9122 60.8238C11.4082 61.3278 11.125 62.0115 11.125 62.7242C11.125 63.437 11.4082 64.1205 11.9122 64.6245C12.4162 65.1285 13.0997 65.4117 13.8125 65.4117H29.9375C30.6503 65.4117 31.3338 65.1285 31.8378 64.6245C32.3418 64.1205 32.625 63.437 32.625 62.7242C32.625 62.0115 32.3418 61.3278 31.8378 60.8238C31.3338 60.3198 30.6503 60.0367 29.9375 60.0367H13.8125Z" fill="#DDD5C6"/>
<path fill-rule="evenodd" clip-rule="evenodd" d="M11.1248 0.911667C10.6252 0.912121 10.1355 1.05186 9.7108 1.31519C9.28614 1.57851 8.94333 1.955 8.72079 2.40239L0.658287 18.6219C0.487249 18.9757 0.395853 19.3627 0.390587 19.7557C0.384959 19.7766 0.379633 19.7975 0.374512 19.8186V73.474C0.374583 74.1867 0.657713 74.8703 1.1617 75.3743C1.66569 75.8783 2.34926 76.1614 3.06201 76.1615H72.937C73.6498 76.1614 74.3333 75.8783 74.8372 75.3743C75.3412 74.8703 75.6244 74.1867 75.6245 73.474V19.8186V19.8132C75.623 19.3995 75.526 18.9917 75.3411 18.6216L67.2786 2.40214C67.056 1.95485 66.7132 1.57847 66.2886 1.31519C65.864 1.0519 65.3744 0.912163 64.8748 0.911667H11.1248ZM12.7835 6.28667H29.4702L27.7118 17.1311H7.39803L12.7835 6.28667ZM34.9082 6.28667H46.4718L48.2827 17.1311H33.155L34.9082 6.28667ZM51.9202 6.28667H63.2109L68.6016 17.1311H53.7312L51.9202 6.28667ZM5.74984 22.5061H27.2498V49.2867C27.25 49.8181 27.4078 50.3375 27.7031 50.7793C27.9985 51.2211 28.4181 51.5654 28.9091 51.7688C29.4001 51.9721 29.9403 52.0254 30.4615 51.9218C30.9827 51.8182 31.4616 51.5624 31.8375 51.1868L40.6873 42.337L49.5372 51.1868C49.9131 51.5624 50.3919 51.8182 50.9132 51.9218C51.4344 52.0254 51.9746 51.9721 52.4656 51.7688C52.9565 51.5654 53.3762 51.2211 53.6715 50.7793C53.9669 50.3375 54.1246 49.8181 54.1248 49.2867V22.5061H70.2498V70.7867H5.74984V22.5061ZM32.6248 22.5061H48.7498V42.7989L42.5875 36.6365C42.0835 36.1327 41.4 35.8497 40.6873 35.8497C39.9747 35.8497 39.2912 36.1327 38.7872 36.6365L32.6248 42.7989V22.5061Z" fill="#DDD5C6"/>
</svg>
